<svg width="125" height="25" viewBox="0 0 125 25" fill="none" xmlns="http://www.w3.org/2000/svg">
<g clip-path="url(#clip0_5_67)">
<path fill-rule="evenodd" clip-rule="evenodd" d="M16.3509 11.4663L18.9685 9.93023L18.9681 20.3662L22.1371 18.5066L22.1374 8.07057L24.755 6.53449L24.7546 20.0425L16.3505 24.9743L16.3509 11.4663Z" fill="#26394B"/>
<path fill-rule="evenodd" clip-rule="evenodd" d="M10.7908 14.7393L2.25014 9.72739L2.25005 6.6554L13.4082 13.2034L13.4087 22.944L4.83187 17.6491L4.8319 19.872L2.21432 18.3359L2.21423 12.9601L10.791 18.255L10.7908 14.7393Z" fill="#26394B"/>
<path fill-rule="evenodd" clip-rule="evenodd" d="M6.11892 23.0544C6.11898 24.7924 4.91854 25.4968 3.43767 24.6278C1.95679 23.7587 0.756265 21.6454 0.75621 19.9074C0.756156 18.1695 1.9566 17.4651 3.43747 18.3341C4.91834 19.2031 6.11887 21.3165 6.11892 23.0544ZM3.4376 22.6876C4.00544 23.0208 4.46574 22.7507 4.46572 22.0843C4.46569 21.4179 4.00536 20.6075 3.43753 20.2743C2.8697 19.9411 2.4094 20.2112 2.40942 20.8776C2.40944 21.544 2.86977 22.3543 3.4376 22.6876Z" fill="#26394B"/>
<path fill-rule="evenodd" clip-rule="evenodd" d="M15.8086 8.07019L18.9721 9.92633L16.3544 11.4622L13.191 9.6061L15.8086 8.07019Z" fill="#26394B"/>
<path fill-rule="evenodd" clip-rule="evenodd" d="M13.6082 3.07182L4.87666 8.19503L2.25899 6.65912L13.6082 0L24.7562 6.54103L22.1385 8.07694L13.6082 3.07182Z" fill="#26394B"/>
<path fill-rule="evenodd" clip-rule="evenodd" d="M15.8642 6.49371C17.3099 7.34194 17.3099 8.71719 15.8642 9.56542C14.4186 10.4137 12.0747 10.4137 10.629 9.56542C9.18338 8.71719 9.18338 7.34194 10.629 6.49371C12.0747 5.64548 14.4186 5.64548 15.8642 6.49371ZM14.2109 8.59537C14.7435 8.28288 14.7435 7.77624 14.2109 7.46376C13.6784 7.15127 12.8149 7.15127 12.2823 7.46376C11.7497 7.77624 11.7497 8.28288 12.2823 8.59537C12.8149 8.90786 13.6784 8.90786 14.2109 8.59537Z" fill="#26394B"/>
<path d="M34.4138 7.25675C33.9991 7.25675 33.6276 7.19212 33.2991 7.06557C32.9706 6.93902 32.6905 6.75054 32.4644 6.50551C32.2355 6.2578 32.0605 5.95892 31.9393 5.6035C31.8181 5.24808 31.7562 4.8388 31.7562 4.37837C31.7562 3.91794 31.8262 3.50867 31.9662 3.15325C32.1062 2.79783 32.3001 2.49626 32.5424 2.25123C32.7875 2.00351 33.0729 1.81772 33.4014 1.69117C33.7299 1.56462 34.0826 1.5 34.4596 1.5C34.6884 1.5 34.8958 1.51616 35.0815 1.55116C35.2673 1.58616 35.4289 1.62386 35.5662 1.66694C35.7035 1.71002 35.8193 1.7558 35.9082 1.80157C35.997 1.84734 36.0616 1.88504 36.0993 1.90389L35.8059 2.72243C35.6793 2.64166 35.4962 2.56626 35.2593 2.49626C35.0223 2.42625 34.7665 2.38855 34.4919 2.38855C34.2522 2.38855 34.0314 2.42894 33.8241 2.51241C33.6168 2.59588 33.4391 2.71705 33.2856 2.8813C33.1348 3.04554 33.0163 3.25287 32.9302 3.50328C32.844 3.75369 32.8036 4.0418 32.8036 4.37029C32.8036 4.66109 32.8359 4.93035 32.9032 5.17538C32.9706 5.4204 33.0702 5.63042 33.2102 5.80814C33.3475 5.98585 33.5225 6.12317 33.7353 6.22279C33.948 6.31973 34.2011 6.37089 34.5 6.37089C34.8554 6.37089 35.1435 6.33588 35.367 6.26318C35.5905 6.19048 35.7628 6.12317 35.8839 6.06124L36.1532 6.87978C36.0886 6.92286 36.0024 6.96595 35.8947 7.00634C35.787 7.04942 35.6578 7.08981 35.5097 7.13019C35.3616 7.17058 35.1946 7.20289 35.0089 7.22443C34.8231 7.24867 34.6238 7.25944 34.4111 7.25944L34.4138 7.25675Z" fill="#26394B"/>
<path d="M40.4398 1.62117H41.4414V7.13827H40.4398V4.6961H38.0434V7.13827H37.0417V1.62117H38.0434V3.82639H40.4398V1.62117Z" fill="#26394B"/>
<path d="M46.4335 7.13827C46.3581 6.92017 46.2827 6.70477 46.2019 6.49474C46.1212 6.28203 46.0458 6.06393 45.9704 5.84314H43.6413C43.5659 6.06662 43.4905 6.28472 43.4124 6.50013C43.3343 6.71554 43.2589 6.92825 43.1862 7.14096H42.1442C42.3515 6.55129 42.5481 6.00739 42.7339 5.50926C42.9197 5.01113 43.1001 4.53724 43.2778 4.09296C43.4555 3.64599 43.6305 3.22325 43.8055 2.81937C43.9806 2.41548 44.161 2.01698 44.3467 1.62655H45.3026C45.4884 2.01967 45.6688 2.41817 45.8438 2.81937C46.0188 3.22056 46.1965 3.64599 46.3743 4.09296C46.552 4.53993 46.7351 5.01113 46.9235 5.50926C47.112 6.00739 47.3086 6.55129 47.5159 7.14096H46.4335V7.13827ZM44.8072 2.69012C44.686 2.97015 44.546 3.3148 44.3898 3.716C44.2337 4.11988 44.0694 4.55608 43.8998 5.02998H45.7146C45.5449 4.55878 45.3807 4.11719 45.2218 3.70792C45.063 3.29865 44.9257 2.95938 44.8072 2.69012Z" fill="#26394B"/>
<path d="M51.9264 7.13827C51.746 6.8367 51.544 6.5109 51.3205 6.16356C51.097 5.81621 50.8682 5.46618 50.6285 5.11345C50.3889 4.76072 50.1466 4.41876 49.8988 4.08757C49.6511 3.75639 49.4169 3.45751 49.1934 3.19094V7.13827H48.2052V1.62117H49.0237C49.2365 1.84465 49.4626 2.10852 49.7077 2.41279C49.9527 2.71705 50.1977 3.03477 50.4427 3.36327C50.6905 3.69176 50.9274 4.02295 51.159 4.35414C51.3905 4.68533 51.5952 4.99497 51.7756 5.28039V1.62117H52.7718V7.13827H51.921H51.9264Z" fill="#26394B"/>
<path d="M57.815 7.13827C57.6346 6.8367 57.4327 6.5109 57.2092 6.16356C56.9857 5.81621 56.7541 5.46618 56.5172 5.11345C56.2776 4.76072 56.0352 4.41876 55.7875 4.08757C55.5398 3.75639 55.3055 3.45751 55.082 3.19094V7.13827H54.0939V1.62117H54.9124C55.1251 1.84465 55.354 2.10852 55.5963 2.41279C55.8387 2.71705 56.0864 3.03477 56.3314 3.36327C56.5791 3.69176 56.8161 4.02295 57.0476 4.35414C57.2792 4.68533 57.4838 4.99497 57.6642 5.28039V1.62117H58.6605V7.13827H57.8096H57.815Z" fill="#26394B"/>
<path d="M59.9879 7.13827V1.62117H63.5287V2.47202H60.9896V3.83178H63.2514V4.66648H60.9896V6.28203H63.7199V7.13289H59.9879V7.13827Z" fill="#26394B"/>
<path d="M68.1384 6.27126V7.13827H64.6515V1.62117H65.6531V6.27126H68.1357H68.1384Z" fill="#26394B"/>
<path d="M36.7375 18.4487C36.7375 17.6221 36.6298 17.0351 36.4198 16.6905C36.2071 16.3458 35.8436 16.1735 35.3266 16.1735C35.165 16.1735 34.9981 16.1816 34.8258 16.2004C34.6534 16.2166 34.4865 16.2381 34.3249 16.2596V23.255H31.7562V14.5041C31.9743 14.4475 32.2301 14.3856 32.5236 14.3237C32.8171 14.2617 33.1267 14.2025 33.4552 14.1513C33.7837 14.1002 34.1176 14.0598 34.4623 14.0302C34.8069 14.0006 35.1462 13.9871 35.4801 13.9871C36.1344 13.9871 36.6648 14.0706 37.0741 14.2375C37.4806 14.4045 37.8172 14.601 38.0811 14.8326C38.45 14.5687 38.87 14.3614 39.3466 14.2133C39.8232 14.0652 40.2621 13.9898 40.666 13.9898C41.3903 13.9898 41.9853 14.0894 42.4485 14.2914C42.9143 14.4933 43.2832 14.776 43.5605 15.1449C43.8351 15.5138 44.0263 15.95 44.1286 16.4535C44.231 16.9597 44.2848 17.5225 44.2848 18.1418V23.2604H41.7161V18.4514C41.7161 17.6248 41.6084 17.0378 41.3984 16.6931C41.1856 16.3485 40.8221 16.1762 40.3052 16.1762C40.1678 16.1762 39.974 16.2112 39.729 16.2785C39.4812 16.3485 39.2766 16.4347 39.1177 16.537C39.1985 16.8009 39.2497 17.0809 39.2739 17.3717C39.2954 17.6652 39.3089 17.9775 39.3089 18.3114V23.2577H36.7402V18.4487H36.7375Z" fill="#26394B"/>
<path d="M48.7303 11.5745C48.7303 12.0457 48.5768 12.4173 48.2725 12.6866C47.9683 12.9558 47.6102 13.0905 47.1955 13.0905C46.7808 13.0905 46.4227 12.9558 46.1185 12.6866C45.8142 12.4173 45.6607 12.0457 45.6607 11.5745C45.6607 11.1033 45.8142 10.7345 46.1185 10.4625C46.4227 10.1932 46.7808 10.0586 47.1955 10.0586C47.6102 10.0586 47.9683 10.1932 48.2725 10.4625C48.5768 10.7318 48.7303 11.1033 48.7303 11.5745ZM48.4879 23.2577H45.9192V14.1944H48.4879V23.2577Z" fill="#26394B"/>
<path d="M58.5528 22.9641C58.3239 23.0341 58.0601 23.0987 57.7612 23.1634C57.4623 23.228 57.15 23.2818 56.8215 23.3276C56.493 23.3734 56.1618 23.4111 55.8225 23.4407C55.4833 23.4703 55.1602 23.4838 54.8478 23.4838C54.102 23.4838 53.4342 23.3734 52.8499 23.1553C52.2629 22.9372 51.7702 22.6248 51.369 22.2156C50.9678 21.809 50.6608 21.3136 50.4481 20.7347C50.2354 20.1557 50.1304 19.5014 50.1304 18.7798C50.1304 18.0582 50.222 17.3824 50.405 16.79C50.5881 16.1976 50.852 15.6968 51.1994 15.2822C51.544 14.8675 51.9667 14.5525 52.4649 14.3344C52.9657 14.1163 53.5365 14.0059 54.18 14.0059C54.5355 14.0059 54.8559 14.0409 55.1359 14.1082C55.4159 14.1782 55.7014 14.2751 55.9895 14.4017V10.3009L58.5582 9.88623V22.9668L58.5528 22.9641ZM52.7449 18.656C52.7449 19.4476 52.9226 20.0857 53.278 20.5677C53.6335 21.0497 54.1639 21.292 54.864 21.292C55.0928 21.292 55.3055 21.2839 55.5021 21.2651C55.696 21.2489 55.8575 21.2274 55.9841 21.2059V16.5369C55.8225 16.4346 55.6125 16.3484 55.354 16.2784C55.0955 16.2084 54.8343 16.1761 54.5705 16.1761C53.3534 16.1761 52.7449 17.0027 52.7449 18.6587V18.656Z" fill="#26394B"/>
<path d="M68.6177 22.9641C68.3888 23.0341 68.125 23.0987 67.8261 23.1634C67.5272 23.228 67.2149 23.2818 66.8864 23.3276C66.5579 23.3734 66.2267 23.4111 65.8874 23.4407C65.5482 23.4703 65.225 23.4838 64.9127 23.4838C64.1669 23.4838 63.4991 23.3734 62.9148 23.1553C62.3278 22.9372 61.8351 22.6248 61.4339 22.2156C61.0327 21.809 60.7257 21.3136 60.513 20.7347C60.3003 20.1557 60.1953 19.5014 60.1953 18.7798C60.1953 18.0582 60.2868 17.3824 60.4699 16.79C60.653 16.1976 60.9169 15.6968 61.2643 15.2822C61.6089 14.8675 62.0316 14.5525 62.5298 14.3344C63.0306 14.1163 63.6014 14.0059 64.2449 14.0059C64.6004 14.0059 64.9208 14.0409 65.2008 14.1082C65.4808 14.1782 65.7662 14.2751 66.0544 14.4017V10.3009L68.6231 9.88623V22.9668L68.6177 22.9641ZM62.8098 18.656C62.8098 19.4476 62.9875 20.0857 63.3429 20.5677C63.6983 21.0497 64.2288 21.292 64.9289 21.292C65.1577 21.292 65.3704 21.2839 65.567 21.2651C65.7609 21.2489 65.9224 21.2274 66.049 21.2059V16.5369C65.8874 16.4346 65.6774 16.3484 65.4189 16.2784C65.1604 16.2084 64.8992 16.1761 64.6354 16.1761C63.4183 16.1761 62.8098 17.0027 62.8098 18.6587V18.656Z" fill="#26394B"/>
<path d="M74.3044 23.43C73.5586 23.4192 72.9527 23.3384 72.4869 23.1877C72.0211 23.0396 71.6549 22.8295 71.383 22.5576C71.111 22.2856 70.9279 21.9598 70.831 21.5748C70.7341 21.1898 70.6856 20.7563 70.6856 20.2743V10.2983L73.2543 9.8836V19.7573C73.2543 19.9862 73.2705 20.1935 73.3055 20.3766C73.3405 20.5597 73.4051 20.7159 73.5047 20.8424C73.6017 20.969 73.7417 21.0713 73.9275 21.1521C74.1106 21.2328 74.3583 21.284 74.6679 21.3082L74.3071 23.4273L74.3044 23.43Z" fill="#26394B"/>
<path d="M75.6992 18.7961C75.6992 17.991 75.823 17.2882 76.0708 16.6851C76.3185 16.0819 76.6416 15.5784 77.0455 15.1772C77.4494 14.776 77.9098 14.4718 78.4322 14.2644C78.9545 14.0571 79.493 13.9548 80.0423 13.9548C81.3294 13.9548 82.3445 14.3479 83.093 15.1341C83.8389 15.9204 84.2131 17.0782 84.2131 18.6076C84.2131 18.7557 84.2078 18.9199 84.197 19.0976C84.1862 19.2753 84.1727 19.4342 84.162 19.5715H78.3379C78.3945 20.0993 78.6422 20.5193 79.0784 20.829C79.5146 21.1386 80.1016 21.2948 80.8366 21.2948C81.3078 21.2948 81.7683 21.2517 82.2233 21.1655C82.6757 21.0794 83.0473 20.9744 83.3354 20.8478L83.68 22.9319C83.5427 23.0019 83.3569 23.0692 83.128 23.1392C82.8992 23.2092 82.6434 23.2684 82.3606 23.3196C82.0779 23.3708 81.7764 23.4138 81.4559 23.4488C81.1355 23.4838 80.8124 23.5 80.492 23.5C79.6761 23.5 78.968 23.3788 78.3648 23.1392C77.7617 22.8969 77.2609 22.5684 76.8651 22.1483C76.4693 21.7283 76.1758 21.2328 75.9873 20.6566C75.7988 20.0831 75.7019 19.4611 75.7019 18.7961H75.6992ZM81.7306 17.8133C81.7198 17.5952 81.6821 17.3825 81.6175 17.1751C81.5529 16.9678 81.4559 16.7847 81.324 16.6231C81.1921 16.4616 81.0251 16.3296 80.8232 16.2273C80.6212 16.125 80.3735 16.0712 80.0746 16.0712C79.7758 16.0712 79.5415 16.1196 79.3342 16.2166C79.1268 16.3135 78.9545 16.4427 78.8172 16.6043C78.6799 16.7658 78.5722 16.9516 78.4995 17.1644C78.4241 17.3771 78.3702 17.5925 78.3352 17.8106H81.7306V17.8133Z" fill="#26394B"/>
<path d="M91.7174 18.0529C91.4885 18.9253 91.2435 19.7923 90.985 20.6539C90.7265 21.5156 90.4546 22.3826 90.1664 23.255H88.1685C87.9612 22.773 87.7377 22.1995 87.4954 21.5317C87.2531 20.8667 87.0027 20.1397 86.7442 19.3507C86.4857 18.5645 86.2191 17.7298 85.9499 16.852C85.6806 15.9742 85.4167 15.0857 85.1636 14.189H87.8697C87.9612 14.6037 88.0635 15.0534 88.1739 15.5407C88.2843 16.0281 88.4001 16.5316 88.5213 17.0486C88.6424 17.5655 88.769 18.0852 88.9036 18.6076C89.0356 19.1299 89.1729 19.6334 89.3102 20.1154C89.4583 19.6092 89.6064 19.0922 89.7491 18.5645C89.8918 18.0367 90.0291 17.5171 90.1638 17.0055C90.2957 16.4939 90.4222 16.0012 90.5434 15.5246C90.6646 15.048 90.7696 14.6037 90.8611 14.189H92.7217C92.8133 14.6037 92.9183 15.048 93.0314 15.5246C93.1471 16.0012 93.2656 16.4966 93.3922 17.0055C93.5187 17.5171 93.6506 18.0367 93.788 18.5645C93.9253 19.0922 94.068 19.6092 94.2188 20.1154C94.3588 19.6334 94.4961 19.1299 94.6334 18.6076C94.7708 18.0852 94.9027 17.5655 95.0239 17.0486C95.145 16.5316 95.2608 16.0281 95.3712 15.5407C95.4816 15.0534 95.5812 14.601 95.6755 14.189H98.3465C98.0934 15.0857 97.8295 15.9715 97.5603 16.852C97.2883 17.7298 97.0245 18.5645 96.766 19.3507C96.5075 20.137 96.2544 20.864 96.0067 21.5317C95.7589 22.1995 95.5328 22.773 95.3227 23.255H93.3249C93.0367 22.3826 92.7567 21.5156 92.4794 20.6539C92.202 19.7923 91.9516 18.9253 91.7201 18.0529H91.7174Z" fill="#26394B"/>
<path d="M102.789 13.9521C103.549 13.9521 104.179 14.0383 104.685 14.2106C105.191 14.3829 105.595 14.6306 105.899 14.951C106.203 15.2742 106.419 15.6646 106.545 16.1223C106.672 16.5828 106.734 17.0943 106.734 17.6571V22.9992C106.365 23.08 105.856 23.1742 105.199 23.2846C104.545 23.395 103.751 23.4488 102.822 23.4488C102.235 23.4488 101.704 23.3977 101.228 23.2927C100.751 23.1904 100.339 23.0207 99.9944 22.7838C99.6497 22.5495 99.3859 22.2399 99.2028 21.8629C99.0197 21.4833 98.9281 21.0174 98.9281 20.4681C98.9281 19.9189 99.0331 19.4907 99.2458 19.1246C99.4586 18.7557 99.744 18.4649 100.099 18.2468C100.455 18.0287 100.864 17.8698 101.322 17.7729C101.782 17.6759 102.259 17.6275 102.752 17.6275C103.085 17.6275 103.382 17.6409 103.637 17.6706C103.896 17.7002 104.106 17.7379 104.268 17.7836V17.5413C104.268 17.1051 104.136 16.7551 103.872 16.4912C103.608 16.2273 103.147 16.0954 102.493 16.0954C102.057 16.0954 101.626 16.1277 101.201 16.1896C100.775 16.2543 100.409 16.3431 100.097 16.4562L99.7709 14.3883C99.919 14.3425 100.107 14.2941 100.331 14.2429C100.554 14.1917 100.799 14.146 101.063 14.1056C101.327 14.0652 101.607 14.0302 101.898 14.0033C102.192 13.9736 102.488 13.9602 102.787 13.9602L102.789 13.9521ZM102.997 21.4644C103.25 21.4644 103.489 21.459 103.721 21.4482C103.95 21.4375 104.136 21.4186 104.273 21.3971V19.4504C104.171 19.4288 104.014 19.4046 103.807 19.3803C103.6 19.3588 103.411 19.3453 103.239 19.3453C102.997 19.3453 102.77 19.3588 102.558 19.3884C102.345 19.418 102.159 19.4719 101.998 19.5527C101.836 19.6334 101.71 19.7412 101.618 19.8812C101.526 20.0185 101.481 20.1908 101.481 20.3981C101.481 20.7993 101.615 21.0794 101.885 21.2328C102.154 21.389 102.525 21.4644 102.997 21.4644Z" fill="#26394B"/>
<path d="M114.524 16.4697C114.295 16.4131 114.023 16.3512 113.713 16.2893C113.403 16.2273 113.07 16.195 112.714 16.195C112.553 16.195 112.361 16.2085 112.138 16.2381C111.914 16.2677 111.745 16.2973 111.629 16.3323V23.2604H109.06V14.6791C109.521 14.5175 110.062 14.3668 110.689 14.2214C111.317 14.0786 112.014 14.0059 112.784 14.0059C112.921 14.0059 113.088 14.014 113.285 14.0329C113.479 14.049 113.675 14.0733 113.872 14.1029C114.066 14.1325 114.262 14.1675 114.459 14.2052C114.653 14.2456 114.82 14.2941 114.96 14.3506L114.529 16.4697H114.524Z" fill="#26394B"/>
<path d="M115.73 18.7961C115.73 17.991 115.854 17.2882 116.101 16.6851C116.349 16.0819 116.672 15.5784 117.076 15.1772C117.48 14.776 117.94 14.4718 118.463 14.2644C118.985 14.0571 119.524 13.9548 120.073 13.9548C121.36 13.9548 122.375 14.3479 123.124 15.1341C123.87 15.9204 124.244 17.0782 124.244 18.6076C124.244 18.7557 124.238 18.9199 124.228 19.0976C124.217 19.2753 124.203 19.4342 124.193 19.5715H118.369C118.425 20.0993 118.673 20.5193 119.109 20.829C119.545 21.1386 120.132 21.2948 120.867 21.2948C121.338 21.2948 121.799 21.2517 122.254 21.1655C122.706 21.0794 123.078 20.9744 123.366 20.8478L123.711 22.9319C123.573 23.0019 123.388 23.0692 123.159 23.1392C122.93 23.2092 122.674 23.2684 122.391 23.3196C122.109 23.3708 121.807 23.4138 121.487 23.4488C121.166 23.4838 120.843 23.5 120.523 23.5C119.707 23.5 118.999 23.3788 118.395 23.1392C117.792 22.8969 117.292 22.5684 116.896 22.1483C116.5 21.7283 116.206 21.2328 116.018 20.6566C115.829 20.0831 115.733 19.4611 115.733 18.7961H115.73ZM121.761 17.8133C121.75 17.5952 121.713 17.3825 121.648 17.1751C121.584 16.9678 121.487 16.7847 121.355 16.6231C121.223 16.4616 121.056 16.3296 120.854 16.2273C120.652 16.125 120.404 16.0712 120.105 16.0712C119.806 16.0712 119.572 16.1196 119.365 16.2166C119.157 16.3135 118.985 16.4427 118.848 16.6043C118.711 16.7658 118.603 16.9516 118.53 17.1644C118.455 17.3771 118.401 17.5925 118.366 17.8106H121.761V17.8133Z" fill="#26394B"/>
</g>
<defs>
<clipPath id="clip0_5_67">
<rect width="123.488" height="25" fill="white" transform="translate(0.75621)"/>
</clipPath>
</defs>
</svg>
